<svg width="24" height="24" viewBox="0 0 24 24" fill="none" xmlns="http://www.w3.org/2000/svg">
<path d="M22.1819 22.909H2.54549C2.15972 22.909 1.78975 22.7558 1.51697 22.483C1.24419 22.2102 1.09094 21.8402 1.09094 21.4545V1.81809C1.09094 1.62521 1.16757 1.44022 1.30396 1.30383C1.44035 1.16744 1.62533 1.09082 1.81822 1.09082C2.0111 1.09082 2.19608 1.16744 2.33247 1.30383C2.46886 1.44022 2.54549 1.62521 2.54549 1.81809V21.4545H22.1819C22.3747 21.4545 22.5597 21.5311 22.6961 21.6675C22.8325 21.8039 22.9091 21.9888 22.9091 22.1817C22.9091 22.3746 22.8325 22.5596 22.6961 22.696C22.5597 22.8324 22.3747 22.909 22.1819 22.909Z" fill="#96A5B8"/>
<path fill-rule="evenodd" clip-rule="evenodd" d="M5.63636 20H7.45455C7.88854 20 8.30475 19.8276 8.61163 19.5207C8.91851 19.2139 9.09091 18.7976 9.09091 18.3637V11.4546C9.09091 11.0206 8.91851 10.6044 8.61163 10.2975C8.30475 9.99061 7.88854 9.8182 7.45455 9.8182H5.63636C5.20237 9.8182 4.78616 9.99061 4.47928 10.2975C4.1724 10.6044 4 11.0206 4 11.4546V18.3637C4 18.7976 4.1724 19.2139 4.47928 19.5207C4.78616 19.8276 5.20237 20 5.63636 20ZM12.1818 20H14C14.434 20 14.8502 19.8276 15.1571 19.5207C15.464 19.2139 15.6364 18.7976 15.6364 18.3637V9.27275C15.6364 8.83876 15.464 8.42254 15.1571 8.11567C14.8502 7.80879 14.434 7.63639 14 7.63639H12.1818C11.7478 7.63639 11.3316 7.80879 11.0247 8.11567C10.7179 8.42254 10.5455 8.83876 10.5455 9.27275V18.3637C10.5455 18.7976 10.7179 19.2139 11.0247 19.5207C11.3316 19.8276 11.7478 20 12.1818 20Z" fill="#96A5B8"/>
<path d="M20.5291 20H18.7109C18.2769 20 17.8607 19.8276 17.5538 19.5207C17.2469 19.2139 17.0745 18.7976 17.0745 18.3637V6.36366C17.0745 5.92967 17.2469 5.51345 17.5538 5.20657C17.8607 4.8997 18.2769 4.72729 18.7109 4.72729H20.5291C20.9631 4.72729 21.3793 4.8997 21.6862 5.20657C21.9931 5.51345 22.1655 5.92967 22.1655 6.36366V18.3637C22.1655 18.7976 21.9931 19.2139 21.6862 19.5207C21.3793 19.8276 20.9631 20 20.5291 20Z" fill="#243574"/>
</svg>
