<svg width="24" height="24" viewBox="0 0 24 24" fill="none" xmlns="http://www.w3.org/2000/svg">
<path d="M17.5 2.5H7C6.20462 2.50087 5.44206 2.81722 4.87964 3.37964C4.31722 3.94206 4.00087 4.70462 4 5.5V20.5C4.00087 21.2954 4.31722 22.0579 4.87964 22.6204C5.44206 23.1828 6.20462 23.4991 7 23.5H17.5C18.2954 23.4991 19.0579 23.1828 19.6204 22.6204C20.1828 22.0579 20.4991 21.2954 20.5 20.5V5.5C20.4991 4.70462 20.1828 3.94206 19.6204 3.37964C19.0579 2.81722 18.2954 2.50087 17.5 2.5ZM12.25 15.25H8.5C8.30109 15.25 8.11032 15.171 7.96967 15.0303C7.82902 14.8897 7.75 14.6989 7.75 14.5C7.75 14.3011 7.82902 14.1103 7.96967 13.9697C8.11032 13.829 8.30109 13.75 8.5 13.75H12.25C12.4489 13.75 12.6397 13.829 12.7803 13.9697C12.921 14.1103 13 14.3011 13 14.5C13 14.6989 12.921 14.8897 12.7803 15.0303C12.6397 15.171 12.4489 15.25 12.25 15.25ZM16 11.5H8.5C8.30109 11.5 8.11032 11.421 7.96967 11.2803C7.82902 11.1397 7.75 10.9489 7.75 10.75C7.75 10.5511 7.82902 10.3603 7.96967 10.2197C8.11032 10.079 8.30109 10 8.5 10H16C16.1989 10 16.3897 10.079 16.5303 10.2197C16.671 10.3603 16.75 10.5511 16.75 10.75C16.75 10.9489 16.671 11.1397 16.5303 11.2803C16.3897 11.421 16.1989 11.5 16 11.5ZM16 7.75H8.5C8.30109 7.75 8.11032 7.67098 7.96967 7.53033C7.82902 7.38968 7.75 7.19891 7.75 7C7.75 6.80109 7.82902 6.61032 7.96967 6.46967C8.11032 6.32902 8.30109 6.25 8.5 6.25H16C16.1989 6.25 16.3897 6.32902 16.5303 6.46967C16.671 6.61032 16.75 6.80109 16.75 7C16.75 7.19891 16.671 7.38968 16.5303 7.53033C16.3897 7.67098 16.1989 7.75 16 7.75Z" fill="#96A5B8"/>
<path d="M16 7.75H8.5C8.30109 7.75 8.11032 7.67098 7.96967 7.53033C7.82902 7.38968 7.75 7.19891 7.75 7C7.75 6.80109 7.82902 6.61032 7.96967 6.46967C8.11032 6.32902 8.30109 6.25 8.5 6.25H16C16.1989 6.25 16.3897 6.32902 16.5303 6.46967C16.671 6.61032 16.75 6.80109 16.75 7C16.75 7.19891 16.671 7.38968 16.5303 7.53033C16.3897 7.67098 16.1989 7.75 16 7.75Z" fill="#96A5B8"/>
<path d="M16 11.5H8.5C8.30109 11.5 8.11032 11.421 7.96967 11.2803C7.82902 11.1397 7.75 10.9489 7.75 10.75C7.75 10.5511 7.82902 10.3603 7.96967 10.2197C8.11032 10.079 8.30109 10 8.5 10H16C16.1989 10 16.3897 10.079 16.5303 10.2197C16.671 10.3603 16.75 10.5511 16.75 10.75C16.75 10.9489 16.671 11.1397 16.5303 11.2803C16.3897 11.421 16.1989 11.5 16 11.5Z" fill="#96A5B8"/>
<path d="M12.25 15.25H8.5C8.30109 15.25 8.11032 15.171 7.96967 15.0303C7.82902 14.8897 7.75 14.6989 7.75 14.5C7.75 14.3011 7.82902 14.1103 7.96967 13.9697C8.11032 13.829 8.30109 13.75 8.5 13.75H12.25C12.4489 13.75 12.6397 13.829 12.7803 13.9697C12.921 14.1103 13 14.3011 13 14.5C13 14.6989 12.921 14.8897 12.7803 15.0303C12.6397 15.171 12.4489 15.25 12.25 15.25Z" fill="#96A5B8"/>
<path fill-rule="evenodd" clip-rule="evenodd" d="M9.21934 9.46991C9.35997 9.32946 9.55059 9.25057 9.74934 9.25057C9.94809 9.25057 10.1387 9.32946 10.2793 9.46991L12.2493 11.4399L14.2193 9.46991C14.288 9.39622 14.3708 9.33712 14.4628 9.29613C14.5548 9.25514 14.6541 9.23309 14.7548 9.23132C14.8555 9.22954 14.9555 9.24807 15.0489 9.28579C15.1423 9.32351 15.2272 9.37965 15.2984 9.45087C15.3696 9.52209 15.4257 9.60692 15.4635 9.70031C15.5012 9.7937 15.5197 9.89373 15.5179 9.99443C15.5162 10.0951 15.4941 10.1944 15.4531 10.2864C15.4121 10.3784 15.353 10.4612 15.2793 10.5299L13.3093 12.4999L15.2793 14.4699C15.4118 14.6121 15.4839 14.8001 15.4805 14.9944C15.4771 15.1887 15.3984 15.3741 15.261 15.5115C15.1235 15.6489 14.9382 15.7277 14.7439 15.7311C14.5496 15.7345 14.3615 15.6624 14.2193 15.5299L12.2493 13.5599L10.2793 15.5299C10.1372 15.6624 9.94912 15.7345 9.75482 15.7311C9.56052 15.7277 9.37513 15.6489 9.23772 15.5115C9.10031 15.3741 9.02159 15.1887 9.01816 14.9944C9.01474 14.8001 9.08686 14.6121 9.21934 14.4699L11.1893 12.4999L9.21934 10.5299C9.07889 10.3893 9 10.1987 9 9.99991C9 9.80116 9.07889 9.61054 9.21934 9.46991Z" fill="white"/>
<path d="M8 2.5C8 2.10218 8.15804 1.72064 8.43934 1.43934C8.72064 1.15804 9.10218 1 9.5 1H14.5C14.8978 1 15.2794 1.15804 15.5607 1.43934C15.842 1.72064 16 2.10218 16 2.5V3.5C16 3.89782 15.842 4.27936 15.5607 4.56066C15.2794 4.84196 14.8978 5 14.5 5H9.5C9.10218 5 8.72064 4.84196 8.43934 4.56066C8.15804 4.27936 8 3.89782 8 3.5V2.5Z" fill="#243574"/>
</svg>
