<svg width="24" height="24" viewBox="0 0 24 24" fill="none" xmlns="http://www.w3.org/2000/svg">
<path d="M17.5 2.5H7C6.20462 2.50087 5.44206 2.81722 4.87964 3.37964C4.31722 3.94206 4.00087 4.70462 4 5.5V20.5C4.00087 21.2954 4.31722 22.0579 4.87964 22.6204C5.44206 23.1828 6.20462 23.4991 7 23.5H17.5C18.2954 23.4991 19.0579 23.1828 19.6204 22.6204C20.1828 22.0579 20.4991 21.2954 20.5 20.5V5.5C20.4991 4.70462 20.1828 3.94206 19.6204 3.37964C19.0579 2.81722 18.2954 2.50087 17.5 2.5ZM12.25 15.25H8.5C8.30109 15.25 8.11032 15.171 7.96967 15.0303C7.82902 14.8897 7.75 14.6989 7.75 14.5C7.75 14.3011 7.82902 14.1103 7.96967 13.9697C8.11032 13.829 8.30109 13.75 8.5 13.75H12.25C12.4489 13.75 12.6397 13.829 12.7803 13.9697C12.921 14.1103 13 14.3011 13 14.5C13 14.6989 12.921 14.8897 12.7803 15.0303C12.6397 15.171 12.4489 15.25 12.25 15.25ZM16 11.5H8.5C8.30109 11.5 8.11032 11.421 7.96967 11.2803C7.82902 11.1397 7.75 10.9489 7.75 10.75C7.75 10.5511 7.82902 10.3603 7.96967 10.2197C8.11032 10.079 8.30109 10 8.5 10H16C16.1989 10 16.3897 10.079 16.5303 10.2197C16.671 10.3603 16.75 10.5511 16.75 10.75C16.75 10.9489 16.671 11.1397 16.5303 11.2803C16.3897 11.421 16.1989 11.5 16 11.5ZM16 7.75H8.5C8.30109 7.75 8.11032 7.67098 7.96967 7.53033C7.82902 7.38968 7.75 7.19891 7.75 7C7.75 6.80109 7.82902 6.61032 7.96967 6.46967C8.11032 6.32902 8.30109 6.25 8.5 6.25H16C16.1989 6.25 16.3897 6.32902 16.5303 6.46967C16.671 6.61032 16.75 6.80109 16.75 7C16.75 7.19891 16.671 7.38968 16.5303 7.53033C16.3897 7.67098 16.1989 7.75 16 7.75Z" fill="#96A5B8"/>
<path d="M8 2.5C8 2.10218 8.15804 1.72064 8.43934 1.43934C8.72064 1.15804 9.10218 1 9.5 1H14.5C14.8978 1 15.2794 1.15804 15.5607 1.43934C15.842 1.72064 16 2.10218 16 2.5V3.5C16 3.89782 15.842 4.27936 15.5607 4.56066C15.2794 4.84196 14.8978 5 14.5 5H9.5C9.10218 5 8.72064 4.84196 8.43934 4.56066C8.15804 4.27936 8 3.89782 8 3.5V2.5Z" fill="#243574"/>
</svg>
