<svg width="16" height="17" viewBox="0 0 16 17" fill="none" xmlns="http://www.w3.org/2000/svg">
<path fill-rule="evenodd" clip-rule="evenodd" d="M0 8.38983C0 3.97143 3.5816 0.389832 8 0.389832C12.4184 0.389832 16 3.97143 16 8.38983C16 12.8082 12.4184 16.3898 8 16.3898C3.5816 16.3898 0 12.8082 0 8.38983ZM10.9656 7.35543C11.1113 7.20455 11.192 7.00247 11.1901 6.79271C11.1883 6.58295 11.1042 6.3823 10.9559 6.23398C10.8075 6.08565 10.6069 6.00152 10.3971 5.99969C10.1874 5.99787 9.98528 6.07851 9.8344 6.22423L7.2 8.85863L6.1656 7.82423C6.01472 7.67851 5.81264 7.59787 5.60288 7.59969C5.39312 7.60152 5.19247 7.68565 5.04415 7.83398C4.89582 7.9823 4.81168 8.18295 4.80986 8.39271C4.80804 8.60247 4.88867 8.80455 5.0344 8.95543L6.6344 10.5554C6.78442 10.7054 6.98787 10.7897 7.2 10.7897C7.41213 10.7897 7.61558 10.7054 7.7656 10.5554L10.9656 7.35543Z" fill="#2C69EE"/>
</svg>
