<svg width="20" height="20" viewBox="0 0 20 20" fill="none" xmlns="http://www.w3.org/2000/svg">
<path d="M15.0851 5.30444H7.30264C6.19907 5.30444 5.30444 6.19907 5.30444 7.30264V15.0851C5.30444 16.1887 6.19907 17.0833 7.30264 17.0833H15.0851C16.1887 17.0833 17.0833 16.1887 17.0833 15.0851V7.30264C17.0833 6.19907 16.1887 5.30444 15.0851 5.30444Z" stroke="#737791" stroke-width="1.5" stroke-linejoin="round"/>
<path d="M14.2613 5.30449L14.2788 4.46314C14.2774 3.94294 14.0701 3.44447 13.7022 3.07663C13.3344 2.70879 12.8359 2.50148 12.3157 2.5H4.74359C4.14909 2.50176 3.57945 2.7387 3.15907 3.15907C2.7387 3.57945 2.50176 4.14909 2.5 4.74359V12.3157C2.50148 12.8359 2.70879 13.3344 3.07663 13.7022C3.44447 14.0701 3.94294 14.2774 4.46314 14.2788H5.30449" stroke="#737791" stroke-width="1.5" stroke-linecap="round" stroke-linejoin="round"/>
</svg>
