<svg width="24" height="25" viewBox="0 0 24 25" fill="none" xmlns="http://www.w3.org/2000/svg">
<g clip-path="url(#clip0_211_997)">
<path d="M19.5 12.3898V4.88977C19.5 3.64713 18.4926 2.63977 17.25 2.63977H6.75C5.50736 2.63977 4.5 3.64713 4.5 4.88977V19.8898C4.5 21.1324 5.50736 22.1398 6.75 22.1398C8.80025 22.1398 9.94975 22.1398 12 22.1398" stroke="white" stroke-width="1.5" stroke-linecap="round" stroke-linejoin="round"/>
<path d="M8.25 6.38977H15.75M8.25 10.1398H15.75M8.25 13.8898H12" stroke="white" stroke-width="1.5" stroke-linecap="round" stroke-linejoin="round"/>
<g clip-path="url(#clip1_211_997)">
<path d="M16.1618 13.8298C15.4336 13.8298 14.7218 14.0457 14.1163 14.4503C13.5108 14.8548 13.0389 15.4298 12.7602 16.1026C12.4816 16.7754 12.4087 17.5157 12.5507 18.2299C12.6928 18.9441 13.0434 19.6001 13.5584 20.115C14.0733 20.6299 14.7293 20.9806 15.4435 21.1226C16.1577 21.2647 16.898 21.1918 17.5707 20.9131C18.2435 20.6344 18.8185 20.1625 19.2231 19.5571C19.6276 18.9516 19.8436 18.2398 19.8436 17.5116C19.8435 16.5351 19.4556 15.5987 18.7651 14.9082C18.0747 14.2178 17.1382 13.8298 16.1618 13.8298Z" stroke="white" stroke-width="1.5" stroke-miterlimit="10"/>
<path d="M19.1786 20.3185L21.75 22.8898" stroke="white" stroke-width="1.5" stroke-miterlimit="10" stroke-linecap="round"/>
</g>
</g>
<defs>
<clipPath id="clip0_211_997">
<rect width="24" height="24" fill="white" transform="translate(0 0.389771)"/>
</clipPath>
<clipPath id="clip1_211_997">
<rect width="12" height="12" fill="white" transform="translate(11.25 12.3898)"/>
</clipPath>
</defs>
</svg>
