<svg width="16" height="16" viewBox="0 0 16 16" fill="none" xmlns="http://www.w3.org/2000/svg">
<path d="M14.4954 8.22068L8.49536 1.55402C8.2427 1.27268 7.75736 1.27268 7.5047 1.55402L1.5047 8.22068C1.41833 8.31641 1.36165 8.43517 1.34153 8.56252C1.32141 8.68987 1.33872 8.82033 1.39136 8.93802C1.49803 9.17868 1.7367 9.33335 2.00003 9.33335H3.33336V14C3.33336 14.1768 3.4036 14.3464 3.52863 14.4714C3.65365 14.5964 3.82322 14.6667 4.00003 14.6667H6.00003C6.17684 14.6667 6.34641 14.5964 6.47143 14.4714C6.59646 14.3464 6.6667 14.1768 6.6667 14V11.3334H9.33336V14C9.33336 14.1768 9.4036 14.3464 9.52863 14.4714C9.65365 14.5964 9.82322 14.6667 10 14.6667H12C12.1768 14.6667 12.3464 14.5964 12.4714 14.4714C12.5965 14.3464 12.6667 14.1768 12.6667 14V9.33335H14C14.1291 9.3339 14.2556 9.29687 14.3641 9.22678C14.4725 9.15669 14.5582 9.05656 14.6107 8.93861C14.6632 8.82066 14.6803 8.68998 14.6598 8.5625C14.6393 8.43502 14.5822 8.31626 14.4954 8.22068Z" fill="#7B91B0"/>
</svg>
