<svg width="25" height="25" viewBox="0 0 25 25" fill="none" xmlns="http://www.w3.org/2000/svg">
<path d="M7.27273 18.5455V17.5C7.27273 16.1136 7.82346 14.7841 8.80376 13.8038C9.78406 12.8235 11.1136 12.2727 12.5 12.2727M12.5 12.2727C13.8864 12.2727 15.2159 12.8235 16.1962 13.8038C17.1765 14.7841 17.7273 16.1136 17.7273 17.5V18.5455M12.5 12.2727C13.3318 12.2727 14.1296 11.9423 14.7177 11.3541C15.3059 10.7659 15.6364 9.96818 15.6364 9.13636C15.6364 8.30455 15.3059 7.5068 14.7177 6.91862C14.1296 6.33044 13.3318 6 12.5 6C11.6682 6 10.8704 6.33044 10.2823 6.91862C9.69407 7.5068 9.36364 8.30455 9.36364 9.13636C9.36364 9.96818 9.69407 10.7659 10.2823 11.3541C10.8704 11.9423 11.6682 12.2727 12.5 12.2727ZM1 18.5455V17.5C1 16.6682 1.33044 15.8704 1.91862 15.2823C2.5068 14.6941 3.30455 14.3636 4.13636 14.3636M4.13636 14.3636C4.69091 14.3636 5.22274 14.1433 5.61486 13.7512C6.00698 13.3591 6.22727 12.8273 6.22727 12.2727C6.22727 11.7182 6.00698 11.1864 5.61486 10.7942C5.22274 10.4021 4.69091 10.1818 4.13636 10.1818C3.58182 10.1818 3.04999 10.4021 2.65787 10.7942C2.26575 11.1864 2.04545 11.7182 2.04545 12.2727C2.04545 12.8273 2.26575 13.3591 2.65787 13.7512C3.04999 14.1433 3.58182 14.3636 4.13636 14.3636ZM24 18.5455V17.5C24 16.6682 23.6696 15.8704 23.0814 15.2823C22.4932 14.6941 21.6955 14.3636 20.8636 14.3636M20.8636 14.3636C21.4182 14.3636 21.95 14.1433 22.3421 13.7512C22.7343 13.3591 22.9545 12.8273 22.9545 12.2727C22.9545 11.7182 22.7343 11.1864 22.3421 10.7942C21.95 10.4021 21.4182 10.1818 20.8636 10.1818C20.3091 10.1818 19.7773 10.4021 19.3851 10.7942C18.993 11.1864 18.7727 11.7182 18.7727 12.2727C18.7727 12.8273 18.993 13.3591 19.3851 13.7512C19.7773 14.1433 20.3091 14.3636 20.8636 14.3636Z" stroke="#A7AFD2" stroke-width="1.75" stroke-linecap="round" stroke-linejoin="round"/>
</svg>
