<svg width="26" height="25" viewBox="0 0 26 25" fill="none" xmlns="http://www.w3.org/2000/svg">
<path d="M9.77195 15.7668C9.92493 15.9424 10.1392 16.048 10.3675 16.0604C10.5959 16.0729 10.8197 15.9912 10.9898 15.8333L13.8648 13.1614C13.9545 13.0779 14.0262 12.9759 14.0753 12.862C14.1244 12.748 14.1497 12.6247 14.1497 12.5C14.1497 12.3753 14.1244 12.252 14.0753 12.138C14.0262 12.0241 13.9545 11.9221 13.8648 11.8386L10.9898 9.16669C10.8198 9.00858 10.5959 8.92671 10.3674 8.93907C10.1389 8.95143 9.92449 9.05701 9.77138 9.23259C9.61827 9.40818 9.53897 9.63937 9.55094 9.87532C9.56291 10.1113 9.66516 10.3326 9.8352 10.4907L11.0404 11.6094H6.9625C6.84924 11.6094 6.73708 11.6324 6.63244 11.6772C6.52779 11.7219 6.43271 11.7875 6.35262 11.8702C6.27253 11.9529 6.209 12.0511 6.16566 12.1592C6.12231 12.2672 6.1 12.383 6.1 12.5C6.1 12.617 6.12231 12.7328 6.16566 12.8408C6.209 12.9489 6.27253 13.0471 6.35262 13.1298C6.43271 13.2125 6.52779 13.2781 6.63244 13.3228C6.73708 13.3676 6.84924 13.3906 6.9625 13.3906H11.0404L9.8352 14.5093C9.66536 14.6674 9.56329 14.8887 9.55143 15.1245C9.53957 15.3603 9.61889 15.5914 9.77195 15.7668ZM24.5 6.26444C24.4997 5.39855 24.1664 4.56823 23.5733 3.95606C22.9803 3.34389 22.176 3 21.3375 3H4.6625C4.24719 3 3.83596 3.08447 3.45226 3.24858C3.06857 3.41269 2.71994 3.65324 2.42628 3.95648C2.13261 4.25972 1.89966 4.61972 1.74073 5.01592C1.5818 5.41213 1.5 5.83678 1.5 6.26562V18.7344C1.5 19.6005 1.83319 20.4311 2.42628 21.0435C3.01936 21.6559 3.82375 22 4.6625 22H21.3375C22.1762 22 22.9806 21.6559 23.5737 21.0435C24.1668 20.4311 24.5 19.6005 24.5 18.7344V6.26444ZM21.3375 4.78006C22.131 4.78006 22.775 5.44506 22.775 6.26444V18.7356C22.775 19.5549 22.131 20.2199 21.3375 20.2199H17.5954V4.78125L21.3375 4.78006ZM15.8704 4.78006V20.2188H4.6625C3.869 20.2188 3.225 19.5538 3.225 18.7344V6.26562C3.225 5.44625 3.869 4.78125 4.6625 4.78125L15.8704 4.78006Z" fill="white"/>
</svg>
