<svg width="25" height="25" viewBox="0 0 25 25" fill="none" xmlns="http://www.w3.org/2000/svg">
<path d="M13.1252 9.9C13.1252 9.66131 13.224 9.43239 13.3998 9.26361C13.5756 9.09482 13.8141 9 14.0627 9H18.4377C18.6864 9 18.9248 9.09482 19.1007 9.26361C19.2765 9.43239 19.3752 9.66131 19.3752 9.9C19.3752 10.1387 19.2765 10.3676 19.1007 10.5364C18.9248 10.7052 18.6864 10.8 18.4377 10.8H14.0627C13.8141 10.8 13.5756 10.7052 13.3998 10.5364C13.224 10.3676 13.1252 10.1387 13.1252 9.9ZM14.0627 15.6C13.8141 15.6 13.5756 15.6948 13.3998 15.8636C13.224 16.0324 13.1252 16.2613 13.1252 16.5C13.1252 16.7387 13.224 16.9676 13.3998 17.1364C13.5756 17.3052 13.8141 17.4 14.0627 17.4H18.4377C18.6864 17.4 18.9248 17.3052 19.1007 17.1364C19.2765 16.9676 19.3752 16.7387 19.3752 16.5C19.3752 16.2613 19.2765 16.0324 19.1007 15.8636C18.9248 15.6948 18.6864 15.6 18.4377 15.6H14.0627ZM10.9752 9.336C11.0674 9.25361 11.1412 9.15425 11.1925 9.04385C11.2437 8.93345 11.2713 8.81427 11.2735 8.69343C11.2757 8.57258 11.2525 8.45255 11.2054 8.34048C11.1582 8.22842 11.0881 8.12662 10.999 8.04115C10.91 7.95569 10.804 7.88832 10.6872 7.84305C10.5705 7.79779 10.4455 7.77556 10.3196 7.77769C10.1937 7.77982 10.0696 7.80627 9.95457 7.85546C9.83957 7.90465 9.73607 7.97558 9.65024 8.064L7.81274 9.828L7.22524 9.264C7.04753 9.10502 6.81247 9.01848 6.56959 9.02259C6.32671 9.0267 6.09498 9.12116 5.92322 9.28605C5.75145 9.45095 5.65306 9.67341 5.64878 9.90657C5.64449 10.1397 5.73464 10.3654 5.90024 10.536L7.15024 11.736C7.32603 11.9045 7.56431 11.9992 7.81274 11.9992C8.06118 11.9992 8.29946 11.9045 8.47524 11.736L10.9752 9.336ZM10.9752 14.664C11.1508 14.8328 11.2494 15.0615 11.2494 15.3C11.2494 15.5385 11.1508 15.7673 10.9752 15.936L8.47524 18.336C8.29946 18.5045 8.06118 18.5992 7.81274 18.5992C7.56431 18.5992 7.32603 18.5045 7.15024 18.336L5.90024 17.136C5.80814 17.0536 5.73426 16.9542 5.68302 16.8438C5.63178 16.7334 5.60423 16.6143 5.60201 16.4934C5.59978 16.3726 5.62294 16.2525 5.67009 16.1405C5.71724 16.0284 5.78742 15.9266 5.87645 15.8412C5.96547 15.7557 6.07151 15.6883 6.18825 15.6431C6.30498 15.5978 6.43002 15.5756 6.5559 15.5777C6.68178 15.5798 6.80592 15.6063 6.92092 15.6555C7.03592 15.7047 7.13942 15.7756 7.22524 15.864L7.81274 16.428L9.65024 14.664C9.82603 14.4955 10.0643 14.4008 10.3127 14.4008C10.5612 14.4008 10.7995 14.4955 10.9752 14.664ZM17.4927 2.5008C17.4404 1.82103 17.1221 1.18543 16.6018 0.721583C16.0815 0.257734 15.3978 -3.99573e-05 14.6877 4.64569e-09H10.3127C9.62095 2.00694e-05 8.95343 0.244808 8.4378 0.687566C7.92217 1.13032 7.59461 1.73999 7.51774 2.4H5.31274C4.56682 2.4 3.85145 2.68446 3.32401 3.19081C2.79656 3.69716 2.50024 4.38392 2.50024 5.1V21.3C2.50024 22.0161 2.79656 22.7028 3.32401 23.2092C3.85145 23.7155 4.56682 24 5.31274 24H19.6877C20.0571 24 20.4228 23.9302 20.764 23.7945C21.1053 23.6588 21.4153 23.4599 21.6765 23.2092C21.9376 22.9585 22.1448 22.6608 22.2862 22.3332C22.4275 22.0057 22.5002 21.6546 22.5002 21.3V5.1C22.5002 4.74543 22.4275 4.39433 22.2862 4.06675C22.1448 3.73918 21.9376 3.44153 21.6765 3.19081C21.4153 2.94009 21.1053 2.74121 20.764 2.60553C20.4228 2.46984 20.0571 2.4 19.6877 2.4H17.4827L17.4927 2.5008ZM17.4927 2.5152L17.5002 2.7C17.5002 2.6376 17.4965 2.5764 17.4927 2.5152ZM10.3127 5.4H14.6877C15.6627 5.4 16.5215 4.9236 17.0265 4.2H19.6877C19.9364 4.2 20.1748 4.29482 20.3507 4.4636C20.5265 4.63239 20.6252 4.86131 20.6252 5.1V21.3C20.6252 21.5387 20.5265 21.7676 20.3507 21.9364C20.1748 22.1052 19.9364 22.2 19.6877 22.2H5.31274C5.0641 22.2 4.82565 22.1052 4.64983 21.9364C4.47402 21.7676 4.37524 21.5387 4.37524 21.3V5.1C4.37524 4.86131 4.47402 4.63239 4.64983 4.4636C4.82565 4.29482 5.0641 4.2 5.31274 4.2H7.97399C8.47899 4.9236 9.33774 5.4 10.3127 5.4ZM10.3127 1.8H14.6877C14.9364 1.8 15.1748 1.89482 15.3507 2.0636C15.5265 2.23239 15.6252 2.46131 15.6252 2.7C15.6252 2.93869 15.5265 3.16761 15.3507 3.3364C15.1748 3.50518 14.9364 3.6 14.6877 3.6H10.3127C10.0641 3.6 9.82565 3.50518 9.64983 3.3364C9.47402 3.16761 9.37524 2.93869 9.37524 2.7C9.37524 2.46131 9.47402 2.23239 9.64983 2.0636C9.82565 1.89482 10.0641 1.8 10.3127 1.8Z" fill="#A7AFD2"/>
</svg>
