<svg width="25" height="25" viewBox="0 0 25 25" fill="none" xmlns="http://www.w3.org/2000/svg">
<g clip-path="url(#clip0_203_11142)">
<path fill-rule="evenodd" clip-rule="evenodd" d="M1.5625 0.78125C1.99397 0.78125 2.34375 1.13103 2.34375 1.5625V22.6562H23.4375C23.869 22.6562 24.2188 23.006 24.2188 23.4375C24.2188 23.869 23.869 24.2188 23.4375 24.2188H2.34375C1.92935 24.2188 1.53192 24.0541 1.2389 23.7611C0.94587 23.4681 0.78125 23.0707 0.78125 22.6562V1.5625C0.78125 1.13103 1.13103 0.78125 1.5625 0.78125Z" fill="#A7AFD2"/>
<path fill-rule="evenodd" clip-rule="evenodd" d="M5.66406 11.7188C5.55619 11.7188 5.46875 11.8062 5.46875 11.9141V19.3359C5.46875 19.4438 5.55619 19.5312 5.66406 19.5312H7.61719C7.72506 19.5312 7.8125 19.4438 7.8125 19.3359V11.9141C7.8125 11.8062 7.72506 11.7188 7.61719 11.7188H5.66406ZM3.90625 11.9141C3.90625 10.9432 4.69325 10.1562 5.66406 10.1562H7.61719C8.588 10.1562 9.375 10.9432 9.375 11.9141V19.3359C9.375 20.3068 8.588 21.0938 7.61719 21.0938H5.66406C4.69325 21.0938 3.90625 20.3068 3.90625 19.3359V11.9141Z" fill="#A7AFD2"/>
<path fill-rule="evenodd" clip-rule="evenodd" d="M12.6953 9.375C12.5874 9.375 12.5 9.46244 12.5 9.57031V19.3359C12.5 19.4438 12.5874 19.5312 12.6953 19.5312H14.6484C14.7563 19.5312 14.8438 19.4438 14.8438 19.3359V9.57031C14.8438 9.46244 14.7563 9.375 14.6484 9.375H12.6953ZM10.9375 9.57031C10.9375 8.5995 11.7245 7.8125 12.6953 7.8125H14.6484C15.6193 7.8125 16.4062 8.5995 16.4062 9.57031V19.3359C16.4062 20.3068 15.6193 21.0938 14.6484 21.0938H12.6953C11.7245 21.0938 10.9375 20.3068 10.9375 19.3359V9.57031Z" fill="#A7AFD2"/>
<path fill-rule="evenodd" clip-rule="evenodd" d="M19.709 6.25C19.6011 6.25 19.5137 6.33744 19.5137 6.44531V19.3359C19.5137 19.4438 19.6011 19.5312 19.709 19.5312H21.6621C21.77 19.5312 21.8574 19.4438 21.8574 19.3359V6.44531C21.8574 6.33744 21.77 6.25 21.6621 6.25H19.709ZM17.9512 6.44531C17.9512 5.4745 18.7382 4.6875 19.709 4.6875H21.6621C22.6329 4.6875 23.4199 5.4745 23.4199 6.44531V19.3359C23.4199 20.3068 22.6329 21.0938 21.6621 21.0938H19.709C18.7382 21.0938 17.9512 20.3068 17.9512 19.3359V6.44531Z" fill="#A7AFD2"/>
</g>
<defs>
<clipPath id="clip0_203_11142">
<rect width="25" height="25" fill="white"/>
</clipPath>
</defs>
</svg>
