<svg width="25" height="25" viewBox="0 0 25 25" fill="none" xmlns="http://www.w3.org/2000/svg">
<path d="M15.7281 15.7668C15.5751 15.9424 15.3608 16.048 15.1325 16.0604C14.9041 16.0729 14.6803 15.9912 14.5102 15.8333L11.6352 13.1614C11.5455 13.0779 11.4738 12.9759 11.4247 12.862C11.3756 12.748 11.3503 12.6247 11.3503 12.5C11.3503 12.3753 11.3756 12.252 11.4247 12.138C11.4738 12.0241 11.5455 11.9221 11.6352 11.8386L14.5102 9.16669C14.6802 9.00858 14.9041 8.92671 15.1326 8.93907C15.3611 8.95143 15.5755 9.05701 15.7286 9.23259C15.8817 9.40818 15.961 9.63937 15.9491 9.87532C15.9371 10.1113 15.8348 10.3326 15.6648 10.4907L14.4596 11.6094H18.5375C18.6508 11.6094 18.7629 11.6324 18.8676 11.6772C18.9722 11.7219 19.0673 11.7875 19.1474 11.8702C19.2275 11.9529 19.291 12.0511 19.3343 12.1592C19.3777 12.2672 19.4 12.383 19.4 12.5C19.4 12.617 19.3777 12.7328 19.3343 12.8408C19.291 12.9489 19.2275 13.0471 19.1474 13.1298C19.0673 13.2125 18.9722 13.2781 18.8676 13.3228C18.7629 13.3676 18.6508 13.3906 18.5375 13.3906H14.4596L15.6648 14.5093C15.8346 14.6674 15.9367 14.8887 15.9486 15.1245C15.9604 15.3603 15.8811 15.5914 15.7281 15.7668ZM1 6.26444C1.0003 5.39855 1.33363 4.56823 1.92668 3.95606C2.51973 3.34389 3.32395 3 4.1625 3H20.8375C21.2528 3 21.664 3.08447 22.0477 3.24858C22.4314 3.41269 22.7801 3.65324 23.0737 3.95648C23.3674 4.25972 23.6003 4.61972 23.7593 5.01592C23.9182 5.41213 24 5.83678 24 6.26562V18.7344C24 19.6005 23.6668 20.4311 23.0737 21.0435C22.4806 21.6559 21.6762 22 20.8375 22H4.1625C3.32375 22 2.51936 21.6559 1.92627 21.0435C1.33319 20.4311 1 19.6005 1 18.7344V6.26444ZM4.1625 4.78006C3.369 4.78006 2.725 5.44506 2.725 6.26444V18.7356C2.725 19.5549 3.369 20.2199 4.1625 20.2199H7.9046V4.78125L4.1625 4.78006ZM9.6296 4.78006V20.2188H20.8375C21.631 20.2188 22.275 19.5538 22.275 18.7344V6.26562C22.275 5.44625 21.631 4.78125 20.8375 4.78125L9.6296 4.78006Z" fill="white"/>
</svg>
