<svg width="25" height="25" viewBox="0 0 25 25" fill="none" xmlns="http://www.w3.org/2000/svg">
<path fill-rule="evenodd" clip-rule="evenodd" d="M4.19437 3.80581C4.7594 3.3364 5.47299 3.125 6.25 3.125H18.75C19.4951 3.125 20.2055 3.32011 20.7773 3.77928C21.3505 4.23959 21.7097 4.90535 21.8601 5.70729L23.4207 13.1203C23.4319 13.1732 23.4375 13.2272 23.4375 13.2812V18.75L23.4375 18.7523C23.4351 19.5797 23.1053 20.3726 22.5202 20.9577C21.9351 21.5428 21.1422 21.8726 20.3148 21.875L20.3125 21.875H4.6875L4.68523 21.875C3.85777 21.8726 3.06489 21.5428 2.47978 20.9577C1.89468 20.3726 1.56491 19.5797 1.5625 18.7523L1.5625 18.75V13.2812C1.5625 13.2272 1.56812 13.1732 1.57926 13.1203L3.14042 5.70479C3.28957 4.93595 3.63152 4.2734 4.19437 3.80581ZM5.19284 5.00767C4.96395 5.19782 4.76915 5.50922 4.67344 6.00691C4.67258 6.01139 4.67168 6.01586 4.67074 6.02032L3.125 13.3626V18.7488C3.12647 19.163 3.29169 19.5599 3.58464 19.8529C3.87761 20.1458 4.27454 20.3111 4.68884 20.3125H20.3112C20.7255 20.3111 21.1224 20.1458 21.4154 19.8529C21.7083 19.5599 21.8736 19.163 21.875 18.7487V13.3626L20.3293 6.02032C20.3279 6.01411 20.3267 6.00788 20.3256 6.00163C20.2307 5.4896 20.029 5.18235 19.7989 4.99758C19.565 4.80977 19.2256 4.6875 18.75 4.6875H6.25C5.75748 4.6875 5.42126 4.8179 5.19284 5.00767Z" fill="#A7AFD2"/>
<path fill-rule="evenodd" clip-rule="evenodd" d="M6.25 7.03125C6.25 6.59978 6.59978 6.25 7.03125 6.25H17.9688C18.4002 6.25 18.75 6.59978 18.75 7.03125C18.75 7.46272 18.4002 7.8125 17.9688 7.8125H7.03125C6.59978 7.8125 6.25 7.46272 6.25 7.03125ZM5.46875 10.1562C5.46875 9.72478 5.81853 9.375 6.25 9.375H18.75C19.1815 9.375 19.5312 9.72478 19.5312 10.1562C19.5312 10.5877 19.1815 10.9375 18.75 10.9375H6.25C5.81853 10.9375 5.46875 10.5877 5.46875 10.1562ZM1.5625 13.2812C1.5625 12.8498 1.91228 12.5 2.34375 12.5H9.375C9.80647 12.5 10.1562 12.8498 10.1562 13.2812C10.1562 13.9029 10.4032 14.499 10.8427 14.9385C11.2823 15.3781 11.8784 15.625 12.5 15.625C13.1216 15.625 13.7177 15.3781 14.1573 14.9385C14.5968 14.499 14.8438 13.9029 14.8438 13.2812C14.8438 12.8498 15.1935 12.5 15.625 12.5H22.6562C23.0877 12.5 23.4375 12.8498 23.4375 13.2812C23.4375 13.7127 23.0877 14.0625 22.6562 14.0625H16.3273C16.1753 14.8074 15.8077 15.4978 15.2621 16.0434C14.5296 16.7759 13.536 17.1875 12.5 17.1875C11.464 17.1875 10.4704 16.7759 9.73786 16.0434C9.19225 15.4978 8.82472 14.8074 8.67266 14.0625H2.34375C1.91228 14.0625 1.5625 13.7127 1.5625 13.2812Z" fill="#A7AFD2"/>
</svg>
