<svg width="36" height="36" viewBox="0 0 36 36" fill="none" xmlns="http://www.w3.org/2000/svg">
<rect x="0.5" y="0.5" width="35" height="35" rx="17.5" fill="#BECDD9" stroke="white"/>
<path d="M25.6135 23.5283C25.199 22.5465 24.5975 21.6547 23.8425 20.9026C23.0898 20.1483 22.1982 19.5469 21.2168 19.1316C21.208 19.1272 21.1992 19.125 21.1904 19.1206C22.5593 18.1318 23.4492 16.5212 23.4492 14.7041C23.4492 11.6938 21.0102 9.25488 18 9.25488C14.9897 9.25488 12.5508 11.6938 12.5508 14.7041C12.5508 16.5212 13.4407 18.1318 14.8096 19.1228C14.8008 19.1272 14.792 19.1294 14.7832 19.1338C13.7988 19.5491 12.9155 20.1445 12.1575 20.9048C11.4032 21.6575 10.8018 22.5492 10.3865 23.5305C9.97849 24.4913 9.75845 25.5213 9.73828 26.5649C9.73769 26.5884 9.7418 26.6117 9.75037 26.6336C9.75894 26.6554 9.7718 26.6753 9.78818 26.6921C9.80456 26.7089 9.82414 26.7222 9.84576 26.7313C9.86738 26.7404 9.8906 26.7451 9.91406 26.7451H11.2324C11.3291 26.7451 11.406 26.6682 11.4082 26.5737C11.4521 24.8774 12.1333 23.2888 13.3374 22.0847C14.5832 20.8389 16.2378 20.1533 18 20.1533C19.7622 20.1533 21.4167 20.8389 22.6626 22.0847C23.8667 23.2888 24.5478 24.8774 24.5918 26.5737C24.594 26.6704 24.6709 26.7451 24.7676 26.7451H26.0859C26.1094 26.7451 26.1326 26.7404 26.1542 26.7313C26.1758 26.7222 26.1954 26.7089 26.2118 26.6921C26.2282 26.6753 26.241 26.6554 26.2496 26.6336C26.2582 26.6117 26.2623 26.5884 26.2617 26.5649C26.2397 25.5146 26.0222 24.4929 25.6135 23.5283ZM18 18.4834C16.9914 18.4834 16.0422 18.0901 15.3281 17.376C14.614 16.6619 14.2207 15.7126 14.2207 14.7041C14.2207 13.6956 14.614 12.7463 15.3281 12.0322C16.0422 11.3181 16.9914 10.9248 18 10.9248C19.0085 10.9248 19.9578 11.3181 20.6719 12.0322C21.386 12.7463 21.7793 13.6956 21.7793 14.7041C21.7793 15.7126 21.386 16.6619 20.6719 17.376C19.9578 18.0901 19.0085 18.4834 18 18.4834Z" fill="white"/>
</svg>
