<svg width="25" height="25" viewBox="0 0 25 25" fill="none" xmlns="http://www.w3.org/2000/svg">
<path d="M12.4643 9.33936C11.8231 9.27603 11.1781 9.41244 10.6174 9.72989C10.0568 10.0474 9.60794 10.5303 9.33239 11.1127C9.05685 11.6951 8.96805 12.3485 9.07815 12.9833C9.18826 13.6181 9.49189 14.2034 9.94747 14.6589C10.4031 15.1145 10.9883 15.4181 11.6231 15.5283C12.2579 15.6384 12.9113 15.5496 13.4937 15.274C14.0761 14.9985 14.5591 14.5496 14.8765 13.989C15.194 13.4283 15.3304 12.7833 15.2671 12.1421C15.1949 11.4233 14.8764 10.7516 14.3656 10.2408C13.8548 9.73003 13.1831 9.41155 12.4643 9.33936ZM19.9887 12.4492C19.9867 12.7889 19.9618 13.128 19.914 13.4644L22.1215 15.1958C22.2177 15.2755 22.2824 15.3867 22.3043 15.5096C22.3262 15.6325 22.3039 15.7592 22.2412 15.8672L20.1528 19.4805C20.0894 19.5874 19.9902 19.6685 19.8729 19.7095C19.7555 19.7505 19.6274 19.7488 19.5112 19.7046L17.3188 18.8218C17.1979 18.7736 17.067 18.7562 16.9377 18.7712C16.8084 18.7861 16.6849 18.8328 16.5781 18.9072C16.2435 19.1376 15.8919 19.3423 15.5263 19.5195C15.4114 19.5754 15.312 19.6587 15.2369 19.7621C15.1618 19.8655 15.1133 19.9857 15.0957 20.1123L14.7671 22.4507C14.7455 22.5742 14.6817 22.6863 14.5866 22.768C14.4914 22.8497 14.3709 22.8958 14.2456 22.8984H10.0688C9.94554 22.8963 9.82667 22.8522 9.73179 22.7735C9.63691 22.6948 9.57168 22.5861 9.54684 22.4653L9.21871 20.1304C9.20029 20.0024 9.15053 19.881 9.07386 19.7769C8.99719 19.6728 8.89599 19.5892 8.77926 19.5337C8.41413 19.3574 8.06372 19.1522 7.73141 18.9199C7.62501 18.8459 7.50186 18.7995 7.37306 18.7849C7.24427 18.7703 7.11387 18.788 6.99361 18.8364L4.80172 19.7188C4.68556 19.763 4.55752 19.7648 4.44015 19.7239C4.32278 19.683 4.22361 19.602 4.16012 19.4951L2.07174 15.8818C2.00895 15.7739 1.98652 15.6472 2.00842 15.5242C2.03033 15.4013 2.09516 15.2901 2.19137 15.2104L4.05709 13.7456C4.15931 13.6645 4.23964 13.5591 4.2908 13.439C4.34196 13.319 4.36233 13.188 4.35006 13.0581C4.33248 12.8545 4.32174 12.6514 4.32174 12.4478C4.32174 12.2441 4.33199 12.0439 4.35006 11.8447C4.36099 11.7156 4.33962 11.5858 4.28788 11.4669C4.23614 11.3481 4.15566 11.244 4.05367 11.1641L2.18893 9.69922C2.09428 9.61919 2.03082 9.5084 2.00966 9.38627C1.9885 9.26414 2.01099 9.13846 2.0732 9.03125L4.16158 5.41797C4.225 5.31103 4.32414 5.22991 4.44151 5.18891C4.55889 5.14791 4.68697 5.14966 4.80318 5.19385L6.99557 6.07666C7.11647 6.1248 7.24742 6.14219 7.3767 6.12728C7.50597 6.11236 7.62953 6.06561 7.73629 5.99121C8.07089 5.7608 8.42248 5.55611 8.78805 5.37891C8.90298 5.32305 9.00239 5.23975 9.0775 5.13637C9.1526 5.03298 9.2011 4.9127 9.21871 4.78613L9.54733 2.44775C9.56891 2.32426 9.63271 2.21209 9.72783 2.13042C9.82294 2.04875 9.94347 2.00265 10.0688 2H14.2456C14.3688 2.00213 14.4877 2.04619 14.5826 2.12492C14.6775 2.20365 14.7427 2.31234 14.7675 2.43311L15.0957 4.76807C15.1141 4.89603 15.1638 5.01746 15.2405 5.12155C15.3172 5.22565 15.4184 5.30919 15.5351 5.36475C15.9002 5.54099 16.2507 5.74624 16.583 5.97852C16.6894 6.05255 16.8125 6.09894 16.9413 6.11351C17.0701 6.12809 17.2005 6.11039 17.3208 6.06201L19.5127 5.17969C19.6288 5.13545 19.7569 5.13363 19.8742 5.17454C19.9916 5.21545 20.0908 5.29647 20.1543 5.40332L22.2426 9.0166C22.3054 9.12455 22.3279 9.25129 22.306 9.37423C22.284 9.49718 22.2192 9.60837 22.123 9.68799L20.2573 11.1528C20.1546 11.2337 20.0738 11.339 20.0222 11.459C19.9706 11.5791 19.9499 11.7102 19.9619 11.8403C19.978 12.0425 19.9887 12.2456 19.9887 12.4492Z" stroke="#A7AFD2" stroke-width="1.75" stroke-linecap="round" stroke-linejoin="round"/>
</svg>
