<svg width="24" height="25" viewBox="0 0 24 25" fill="none" xmlns="http://www.w3.org/2000/svg">
<g clip-path="url(#clip0_211_1006)">
<path d="M19.5 12.3898V4.88977C19.5 3.64713 18.4926 2.63977 17.25 2.63977H6.75C5.50736 2.63977 4.5 3.64713 4.5 4.88977V19.8898C4.5 21.1324 5.50736 22.1398 6.75 22.1398C8.80025 22.1398 9.94975 22.1398 12 22.1398" stroke="white" stroke-width="1.5" stroke-linecap="round" stroke-linejoin="round"/>
<path d="M8.25 6.38977H15.75M8.25 10.1398H15.75M8.25 13.8898H12" stroke="white" stroke-width="1.5" stroke-linecap="round" stroke-linejoin="round"/>
<path d="M19.5 15.3897L21 16.8897M18.5 22.3897H22.5M14.5 20.3897L14 22.3897L16 21.8897L21.793 16.0967C21.9805 15.9092 22.0858 15.6549 22.0858 15.3897C22.0858 15.1246 21.9805 14.8703 21.793 14.6827L21.707 14.5967C21.5195 14.4093 21.2652 14.304 21 14.304C20.7348 14.304 20.4805 14.4093 20.293 14.5967L14.5 20.3897Z" stroke="white" stroke-width="1.5" stroke-linecap="round" stroke-linejoin="round"/>
</g>
<defs>
<clipPath id="clip0_211_1006">
<rect width="24" height="24" fill="white" transform="translate(0 0.389771)"/>
</clipPath>
</defs>
</svg>
