<svg width="42" height="42" viewBox="0 0 42 42" fill="none" xmlns="http://www.w3.org/2000/svg">
<path d="M21 3C11.0749 3 3 11.0749 3 21C3 30.9251 11.0749 39 21 39C30.9251 39 39 30.9251 39 21C39 11.0749 30.9251 3 21 3ZM21 30.6845C20.6577 30.6845 20.3231 30.583 20.0384 30.3928C19.7538 30.2027 19.532 29.9323 19.401 29.6161C19.27 29.2998 19.2357 28.9518 19.3025 28.6161C19.3693 28.2804 19.5341 27.972 19.7762 27.7299C20.0182 27.4879 20.3266 27.323 20.6623 27.2562C20.9981 27.1895 21.3461 27.2237 21.6623 27.3547C21.9786 27.4857 22.2489 27.7076 22.4391 27.9922C22.6293 28.2768 22.7308 28.6114 22.7308 28.9538C22.7308 29.4128 22.5484 29.853 22.2238 30.1776C21.8993 30.5022 21.459 30.6845 21 30.6845ZM22.8796 13.2773L22.3829 23.835C22.3829 24.2022 22.237 24.5544 21.9773 24.8141C21.7177 25.0737 21.3655 25.2196 20.9983 25.2196C20.631 25.2196 20.2789 25.0737 20.0192 24.8141C19.7595 24.5544 19.6137 24.2022 19.6137 23.835L19.1169 13.2825V13.2782C19.106 13.0246 19.1466 12.7714 19.2361 12.5338C19.3257 12.2963 19.4624 12.0793 19.638 11.896C19.8136 11.7127 20.0245 11.5668 20.258 11.4672C20.4915 11.3675 20.7427 11.3161 20.9965 11.3161C21.2504 11.3161 21.5016 11.3675 21.7351 11.4672C21.9686 11.5668 22.1795 11.7127 22.3551 11.896C22.5307 12.0793 22.6674 12.2963 22.7569 12.5338C22.8465 12.7714 22.887 13.0246 22.8762 13.2782L22.8796 13.2773Z" fill="#FFDEDE"/>
<path d="M22.8796 13.2773L22.3829 23.835C22.3829 24.2022 22.237 24.5544 21.9773 24.8141C21.7177 25.0737 21.3655 25.2196 20.9983 25.2196C20.631 25.2196 20.2789 25.0737 20.0192 24.8141C19.7595 24.5544 19.6137 24.2022 19.6137 23.835L19.1169 13.2825V13.2782C19.106 13.0246 19.1466 12.7714 19.2361 12.5338C19.3257 12.2963 19.4624 12.0793 19.638 11.896C19.8136 11.7127 20.0245 11.5668 20.258 11.4672C20.4915 11.3675 20.7427 11.3161 20.9965 11.3161C21.2504 11.3161 21.5016 11.3675 21.7351 11.4672C21.9686 11.5668 22.1795 11.7127 22.3551 11.896C22.5307 12.0793 22.6674 12.2963 22.7569 12.5338C22.8465 12.7714 22.887 13.0246 22.8762 13.2782L22.8796 13.2773Z" fill="#EF4444"/>
<path d="M21 30.6845C20.6577 30.6845 20.3231 30.583 20.0384 30.3928C19.7538 30.2027 19.532 29.9323 19.401 29.6161C19.27 29.2998 19.2357 28.9518 19.3025 28.6161C19.3693 28.2804 19.5341 27.972 19.7762 27.7299C20.0182 27.4879 20.3266 27.323 20.6623 27.2562C20.9981 27.1895 21.3461 27.2237 21.6623 27.3547C21.9786 27.4857 22.2489 27.7076 22.4391 27.9922C22.6293 28.2768 22.7308 28.6114 22.7308 28.9538C22.7308 29.4128 22.5484 29.853 22.2238 30.1776C21.8993 30.5022 21.459 30.6845 21 30.6845Z" fill="#EF4444"/>
</svg>
